<?xml version="1.0" standalone="no"?>
<!DOCTYPE svg PUBLIC "-//W3C//DTD SVG 20010904//EN"
 "http://www.w3.org/TR/2001/REC-SVG-20010904/DTD/svg10.dtd">
<svg version="1.0" xmlns="http://www.w3.org/2000/svg"
 width="260.000000pt" height="260.000000pt" viewBox="0 0 260.000000 260.000000"
 preserveAspectRatio="xMidYMid meet">
<metadata>
Created by potrace 1.14, written by Peter Selinger 2001-2017
</metadata>
<g transform="translate(0.000000,260.000000) scale(0.100000,-0.100000)"
fill="#000000" stroke="none">
<path d="M1270 2522 c0 -4 -15 -8 -32 -9 -57 -1 -135 -10 -144 -16 -6 -3 -28
-8 -49 -11 -61 -7 -190 -52 -285 -99 -47 -23 -87 -44 -90 -47 -3 -3 -25 -18
-50 -35 -66 -44 -148 -113 -200 -169 -25 -27 -52 -57 -61 -66 -25 -26 -129
-186 -129 -199 0 -6 -5 -11 -12 -11 -6 0 -8 -3 -5 -7 4 -3 1 -13 -7 -22 -8 -9
-15 -20 -16 -26 -1 -5 -9 -26 -17 -45 -26 -61 -27 -93 -3 -117 19 -21 44 -28
80 -23 17 2 51 35 49 47 -2 8 3 24 28 83 25 61 47 104 62 123 8 9 10 17 5 17
-5 0 -4 4 1 8 6 4 24 27 40 52 61 91 262 270 304 270 6 0 11 5 11 10 0 6 6 10
13 11 6 0 34 11 62 24 27 13 53 21 57 19 5 -3 8 -1 8 4 0 5 12 12 28 16 48 10
126 27 157 33 40 7 335 10 335 2 0 -3 12 -6 28 -6 15 -1 38 -4 51 -7 38 -9
135 -36 151 -43 8 -3 18 -5 23 -5 4 1 7 -3 7 -9 0 -5 4 -8 9 -4 5 3 12 1 16
-5 3 -5 15 -10 26 -10 10 0 19 -5 19 -10 0 -6 3 -9 8 -8 10 3 106 -44 114 -56
7 -11 4 -21 -28 -94 -13 -29 -24 -55 -24 -58 0 -3 -11 -30 -25 -60 -14 -30
-25 -57 -25 -60 0 -10 -50 -114 -54 -114 -3 0 -24 13 -48 29 -52 35 -176 100
-203 106 -11 2 -40 9 -65 15 -68 17 -197 15 -270 -4 -36 -10 -94 -34 -129 -53
-64 -36 -191 -150 -191 -171 0 -7 -4 -12 -8 -12 -12 0 -83 -136 -75 -143 3 -4
2 -7 -3 -7 -22 0 -48 -153 -46 -270 2 -107 7 -148 21 -183 6 -16 11 -33 11
-38 0 -30 82 -188 103 -197 4 -2 7 -7 7 -12 0 -13 82 -90 113 -106 15 -8 27
-19 27 -24 0 -6 8 -10 18 -10 10 0 22 -4 27 -9 16 -15 126 -49 185 -56 94 -12
244 -6 271 10 3 2 21 7 39 10 41 7 161 67 215 107 l40 29 25 -53 c13 -29 25
-55 25 -58 1 -3 21 -45 45 -95 24 -49 43 -93 42 -98 -1 -4 2 -7 6 -7 5 0 9 -6
9 -12 0 -7 4 -20 7 -29 7 -17 -30 -45 -109 -84 -22 -11 -42 -22 -45 -25 -3 -3
-9 -6 -15 -7 -5 -2 -50 -16 -98 -33 -48 -16 -102 -32 -120 -35 -18 -2 -48 -8
-67 -12 -40 -8 -255 -8 -315 0 -89 13 -131 21 -155 30 -8 3 -28 8 -45 12 -66
14 -239 101 -285 142 -14 13 -28 23 -32 23 -18 0 -145 138 -216 235 -19 27
-72 137 -92 193 -13 34 -27 62 -31 62 -5 0 -9 8 -9 18 0 10 -11 24 -24 32 -29
15 -76 6 -76 -15 0 -8 -5 -15 -11 -15 -5 0 -7 -4 -4 -10 3 -5 2 -10 -4 -10 -5
0 -8 -12 -7 -27 2 -16 5 -28 6 -28 2 0 5 -13 14 -54 3 -14 11 -28 18 -33 7 -4
10 -8 5 -8 -7 0 60 -140 72 -150 7 -6 29 -40 38 -60 4 -8 9 -17 13 -20 3 -3
21 -24 39 -48 68 -88 251 -252 280 -252 6 0 11 -4 11 -10 0 -5 6 -10 14 -10 8
0 16 -4 18 -8 5 -12 156 -86 224 -110 64 -22 134 -42 174 -48 14 -2 41 -7 60
-10 19 -3 51 -7 70 -9 19 -1 37 -4 40 -5 3 -1 10 -1 15 0 38 8 45 8 45 0 0 -5
7 -7 15 -3 9 3 44 6 78 7 34 1 67 4 72 7 6 4 21 5 35 4 14 -1 31 2 37 7 7 6
19 8 28 5 8 -4 17 -2 20 4 4 5 12 9 18 8 7 -1 19 0 27 3 8 3 35 12 60 19 25 7
70 23 100 36 30 13 57 25 60 25 3 1 21 11 40 23 19 12 42 24 50 27 24 9 171
122 220 169 55 53 160 176 160 187 0 5 9 18 20 30 12 12 18 22 15 22 -4 0 3
12 15 28 21 26 51 89 47 96 -1 1 3 9 10 17 27 33 78 200 99 326 9 49 9 306 1
358 -14 88 -38 183 -60 237 -8 20 -13 39 -9 42 3 3 -1 6 -8 6 -7 0 -11 3 -7 6
7 8 -51 126 -67 136 -6 4 -8 8 -3 8 7 0 -52 94 -88 140 -52 65 -166 177 -225
221 -36 27 -70 53 -76 58 -22 18 -184 101 -184 93 0 -4 -4 -2 -8 3 -11 16
-148 60 -247 80 -27 6 -103 15 -147 18 -10 1 -18 6 -18 12 0 6 -3 7 -8 0 -4
-5 -14 -10 -22 -10 -8 0 -18 5 -22 10 -5 6 -8 5 -8 -2 0 -9 -7 -10 -25 -3 -14
5 -25 6 -25 2z"/>
</g>
</svg>
