<?xml version="1.0" standalone="no"?>
<!DOCTYPE svg PUBLIC "-//W3C//DTD SVG 20010904//EN"
 "http://www.w3.org/TR/2001/REC-SVG-20010904/DTD/svg10.dtd">
<svg version="1.0" xmlns="http://www.w3.org/2000/svg"
 width="260.000000pt" height="260.000000pt" viewBox="0 0 260.000000 260.000000"
 preserveAspectRatio="xMidYMid meet">
<metadata>
Created by potrace 1.14, written by Peter Selinger 2001-2017
</metadata>
<g transform="translate(0.000000,260.000000) scale(0.100000,-0.100000)"
fill="#000000" stroke="none">
<path d="M1115 2579 c-27 -11 -75 -29 -105 -39 -102 -35 -456 -164 -495 -181
-11 -5 -33 -13 -50 -18 -31 -10 -51 -17 -313 -117 l-153 -58 3 -530 3 -531 51
-135 c28 -74 88 -236 133 -360 95 -260 120 -327 131 -355 5 -11 25 -63 45
-115 19 -52 40 -105 45 -117 l10 -23 563 0 c310 0 566 3 570 6 3 3 54 23 114
44 59 21 142 50 183 64 41 15 84 31 95 36 11 4 54 20 95 35 96 35 149 54 180
68 14 6 33 12 43 14 11 2 56 19 100 38 45 18 117 46 160 61 l77 27 0 548 c0
478 -2 554 -16 591 -9 24 -25 68 -36 98 -11 30 -24 64 -28 75 -4 11 -13 36
-20 55 -7 19 -16 44 -20 55 -5 11 -23 61 -40 110 -17 50 -35 99 -40 110 -5 11
-14 38 -21 60 -6 22 -15 45 -19 50 -3 6 -12 30 -20 55 -7 25 -17 49 -22 54 -4
6 -8 16 -8 24 0 8 -7 29 -15 48 -34 76 -44 101 -59 144 -8 25 -22 63 -30 85
l-14 40 -514 2 c-494 2 -515 1 -563 -18z"/>
</g>
</svg>
